<?xml version="1.0" standalone="no"?>
<!DOCTYPE svg PUBLIC "-//W3C//DTD SVG 20010904//EN"
 "http://www.w3.org/TR/2001/REC-SVG-20010904/DTD/svg10.dtd">
<svg version="1.0" xmlns="http://www.w3.org/2000/svg"
 width="260.000000pt" height="260.000000pt" viewBox="0 0 260.000000 260.000000"
 preserveAspectRatio="xMidYMid meet">
<metadata>
Created by potrace 1.11, written by Peter Selinger 2001-2013
</metadata>
<g transform="translate(0.000000,260.000000) scale(0.100000,-0.100000)"
fill="#000000" stroke="none">
<path d="M0 1553 l0 -1048 44 -3 c58 -3 206 -52 298 -98 108 -54 184 -109 263
-189 59 -60 155 -184 155 -200 0 -3 -63 -5 -139 -5 -99 0 -140 3 -143 12 -3 7
-7 6 -11 -5 -6 -16 61 -17 1063 -17 l1070 0 0 1300 0 1300 -1300 0 -1300 0 0
-1047z m1615 797 c301 -35 470 -160 530 -395 19 -75 19 -257 0 -347 -44 -211
-187 -351 -418 -409 -72 -19 -121 -22 -404 -26 l-323 -5 0 -464 0 -464 -50 0
-50 0 0 1060 0 1060 313 0 c171 0 353 -5 402 -10z"/>
<path d="M1000 1771 l0 -511 295 0 c327 0 401 9 512 60 67 31 143 95 178 150
47 75 67 150 72 270 3 69 1 137 -6 171 -37 178 -165 301 -359 346 -49 11 -150
16 -379 20 l-313 5 0 -511z"/>
<path d="M150 446 c0 -2 14 -14 30 -26 17 -12 30 -19 30 -16 0 2 -13 14 -30
26 -16 12 -30 19 -30 16z"/>
<path d="M285 330 c33 -33 62 -60 64 -60 3 0 -21 27 -54 60 -33 33 -62 60 -64
60 -3 0 21 -27 54 -60z"/>
<path d="M350 256 c0 -2 8 -10 18 -17 15 -13 16 -12 3 4 -13 16 -21 21 -21 13z"/>
<path d="M395 196 c10 -14 19 -26 22 -26 7 0 -17 39 -28 46 -6 3 -3 -5 6 -20z"/>
</g>
</svg>
