<?xml version="1.0" encoding="utf-8"?>
<!-- Generator: Adobe Illustrator 22.0.0, SVG Export Plug-In . SVG Version: 6.00 Build 0)  -->
<svg version="1.1" id="Layer_1" xmlns="http://www.w3.org/2000/svg" xmlns:xlink="http://www.w3.org/1999/xlink" x="0px" y="0px"
	 viewBox="0 0 16 16" style="enable-background:new 0 0 16 16;" xml:space="preserve">
<g>
	<path d="M8.141,4.462H6.235v3.95h1.863c1.442,0,2.297-0.575,2.297-2.059C10.396,4.966,9.415,4.462,8.141,4.462z"/>
	<path d="M14.935,4.837c-0.177-0.39-0.566-0.634-0.836-0.966c-0.328-0.403-0.474-0.926-0.771-1.352
		c-0.56-0.805-1.57-1.16-2.535-1.34C9.271,0.896,7.704,0.929,6.164,1.096c-1.196,0.13-2.521,0.371-3.425,1.234
		c-1.032,0.986-1.381,2.31-1.493,3.685c-0.085,1.039-0.031,2.093-0.04,3.135c-0.009,1.069-0.083,2.187,0.363,3.159
		c0.335,0.732,0.942,1.314,1.624,1.741c0.782,0.489,1.693,0.797,2.615,0.775c1.444-0.034,2.748-0.852,3.871-1.76
		c1.123-0.908,2.171-1.946,3.477-2.563c0.624-0.295,1.359-0.544,1.652-1.17c0.139-0.296,0.152-0.633,0.163-0.96
		c0.028-0.86,0.055-1.719,0.081-2.579C15.062,5.47,15.07,5.132,14.935,4.837z M8.309,9.42H6.235v3.951H4.975v-9.89h3.32
		c1.988,0,3.432,0.868,3.432,2.872C11.727,8.608,10.241,9.42,8.309,9.42z"/>
</g>
</svg>
